<svg xmlns="http://www.w3.org/2000/svg" xmlns:xlink="http://www.w3.org/1999/xlink" width="224" zoomAndPan="magnify" viewBox="0 0 168 61.499998" height="82" preserveAspectRatio="xMidYMid meet" version="1.0"><defs><g/><clipPath id="56327f605c"><path d="M 22.8125 23 L 39 23 L 39 50.226562 L 22.8125 50.226562 Z M 22.8125 23 " clip-rule="nonzero"/></clipPath><clipPath id="41d0b7a69a"><path d="M 22.8125 14.515625 L 54 14.515625 L 54 33 L 22.8125 33 Z M 22.8125 14.515625 " clip-rule="nonzero"/></clipPath><clipPath id="09f3f217ee"><path d="M 38 23 L 54.058594 23 L 54.058594 50.226562 L 38 50.226562 Z M 38 23 " clip-rule="nonzero"/></clipPath></defs><g clip-path="url(#56327f605c)"><path fill="#ffd79b" d="M 38.4375 50.179688 L 38.480469 50.203125 L 38.4375 50.230469 L 22.894531 41.328125 L 22.84375 41.300781 L 22.84375 23.445312 L 22.894531 23.417969 L 38.4375 32.316406 L 38.480469 32.289062 L 38.488281 32.296875 L 38.4375 32.324219 Z M 38.4375 50.179688 " fill-opacity="1" fill-rule="nonzero"/></g><g clip-path="url(#41d0b7a69a)"><path fill="#75c7fb" d="M 53.984375 23.417969 L 38.480469 32.289062 L 38.4375 32.316406 L 22.894531 23.417969 L 38.4375 14.515625 Z M 53.984375 23.417969 " fill-opacity="1" fill-rule="nonzero"/></g><g clip-path="url(#09f3f217ee)"><path fill="#ff3847" d="M 54.035156 23.445312 L 54.035156 41.300781 L 53.984375 41.328125 L 38.480469 50.203125 L 38.4375 50.179688 L 38.4375 32.324219 L 38.488281 32.296875 L 53.992188 23.421875 Z M 54.035156 23.445312 " fill-opacity="1" fill-rule="nonzero"/></g><g fill="#75c7fb" fill-opacity="1"><g transform="translate(65.899643, 32.15546)"><g><path d="M 9.015625 -10.796875 C 8.992188 -10.710938 8.953125 -10.644531 8.890625 -10.59375 C 8.835938 -10.539062 8.765625 -10.515625 8.671875 -10.515625 L 5.046875 -10.515625 C 4.984375 -10.515625 4.953125 -10.476562 4.953125 -10.40625 L 4.71875 -8.5 C 4.695312 -8.4375 4.722656 -8.40625 4.796875 -8.40625 L 6.6875 -8.40625 C 6.78125 -8.40625 6.847656 -8.378906 6.890625 -8.328125 C 6.941406 -8.273438 6.957031 -8.203125 6.9375 -8.109375 L 6.625 -5.5625 C 6.59375 -5.363281 6.484375 -5.265625 6.296875 -5.265625 L 4.40625 -5.265625 C 4.34375 -5.265625 4.3125 -5.234375 4.3125 -5.171875 L 4.078125 -3.234375 C 4.046875 -3.171875 4.070312 -3.140625 4.15625 -3.140625 L 7.78125 -3.140625 C 7.875 -3.140625 7.941406 -3.113281 7.984375 -3.0625 C 8.023438 -3.007812 8.039062 -2.9375 8.03125 -2.84375 L 7.71875 -0.296875 C 7.707031 -0.203125 7.671875 -0.128906 7.609375 -0.078125 C 7.554688 -0.0234375 7.484375 0 7.390625 0 L 0.390625 0 C 0.304688 0 0.242188 -0.0234375 0.203125 -0.078125 C 0.160156 -0.128906 0.144531 -0.203125 0.15625 -0.296875 L 1.75 -13.359375 C 1.769531 -13.453125 1.804688 -13.523438 1.859375 -13.578125 C 1.921875 -13.628906 1.988281 -13.65625 2.0625 -13.65625 L 9.0625 -13.65625 C 9.15625 -13.65625 9.222656 -13.628906 9.265625 -13.578125 C 9.316406 -13.523438 9.335938 -13.453125 9.328125 -13.359375 Z M 9.015625 -10.796875 "/></g></g></g><g fill="#75c7fb" fill-opacity="1"><g transform="translate(74.303232, 32.15546)"><g><path d="M 0.390625 0 C 0.304688 0 0.242188 -0.0234375 0.203125 -0.078125 C 0.160156 -0.128906 0.144531 -0.203125 0.15625 -0.296875 L 1.75 -13.359375 C 1.769531 -13.453125 1.804688 -13.523438 1.859375 -13.578125 C 1.921875 -13.628906 1.988281 -13.65625 2.0625 -13.65625 L 5.796875 -13.65625 C 6.953125 -13.65625 7.867188 -13.351562 8.546875 -12.75 C 9.234375 -12.144531 9.578125 -11.332031 9.578125 -10.3125 C 9.578125 -10.195312 9.5625 -10.007812 9.53125 -9.75 L 8.8125 -3.90625 C 8.71875 -3.132812 8.457031 -2.453125 8.03125 -1.859375 C 7.613281 -1.265625 7.0625 -0.804688 6.375 -0.484375 C 5.695312 -0.160156 4.941406 0 4.109375 0 Z M 4.078125 -3.234375 C 4.046875 -3.171875 4.070312 -3.140625 4.15625 -3.140625 L 4.421875 -3.15625 C 4.628906 -3.164062 4.8125 -3.257812 4.96875 -3.4375 C 5.132812 -3.625 5.242188 -3.863281 5.296875 -4.15625 L 5.953125 -9.515625 L 5.96875 -9.734375 C 5.96875 -9.972656 5.90625 -10.160156 5.78125 -10.296875 C 5.664062 -10.441406 5.515625 -10.515625 5.328125 -10.515625 L 5.046875 -10.515625 C 4.984375 -10.515625 4.953125 -10.476562 4.953125 -10.40625 Z M 4.078125 -3.234375 "/></g></g></g><g fill="#75c7fb" fill-opacity="1"><g transform="translate(83.449217, 32.15546)"><g><path d="M 0.390625 0 C 0.304688 0 0.242188 -0.0234375 0.203125 -0.078125 C 0.160156 -0.128906 0.144531 -0.203125 0.15625 -0.296875 L 1.75 -13.359375 C 1.769531 -13.453125 1.804688 -13.523438 1.859375 -13.578125 C 1.921875 -13.628906 1.988281 -13.65625 2.0625 -13.65625 L 5.0625 -13.65625 C 5.144531 -13.65625 5.207031 -13.628906 5.25 -13.578125 C 5.300781 -13.523438 5.316406 -13.453125 5.296875 -13.359375 L 4.84375 -9.4375 C 4.820312 -9.382812 4.820312 -9.359375 4.84375 -9.359375 C 4.875 -9.359375 4.90625 -9.378906 4.9375 -9.421875 L 7.046875 -13.421875 C 7.117188 -13.578125 7.238281 -13.65625 7.40625 -13.65625 L 10.53125 -13.65625 C 10.6875 -13.65625 10.765625 -13.59375 10.765625 -13.46875 C 10.765625 -13.414062 10.742188 -13.359375 10.703125 -13.296875 L 7.328125 -7.53125 C 7.316406 -7.476562 7.3125 -7.4375 7.3125 -7.40625 L 9.203125 -0.328125 L 9.203125 -0.25 C 9.203125 -0.0820312 9.113281 0 8.9375 0 L 5.796875 0 C 5.617188 0 5.515625 -0.078125 5.484375 -0.234375 L 4.484375 -4.25 C 4.484375 -4.289062 4.46875 -4.3125 4.4375 -4.3125 C 4.414062 -4.320312 4.398438 -4.300781 4.390625 -4.25 L 4.15625 -3.828125 L 4.140625 -3.703125 L 3.703125 -0.296875 C 3.691406 -0.203125 3.65625 -0.128906 3.59375 -0.078125 C 3.539062 -0.0234375 3.472656 0 3.390625 0 Z M 0.390625 0 "/></g></g></g><g fill="#75c7fb" fill-opacity="1"><g transform="translate(93.219235, 32.15546)"><g/></g></g><g fill="#75c7fb" fill-opacity="1"><g transform="translate(97.002435, 32.15546)"><g><path d="M 10.125 -13.65625 C 10.195312 -13.65625 10.253906 -13.628906 10.296875 -13.578125 C 10.347656 -13.523438 10.367188 -13.453125 10.359375 -13.359375 L 10.046875 -10.796875 C 10.023438 -10.710938 9.988281 -10.644531 9.9375 -10.59375 C 9.882812 -10.539062 9.816406 -10.515625 9.734375 -10.515625 L 7.46875 -10.515625 C 7.40625 -10.515625 7.375 -10.476562 7.375 -10.40625 L 6.125 -0.296875 C 6.113281 -0.203125 6.082031 -0.128906 6.03125 -0.078125 C 5.976562 -0.0234375 5.90625 0 5.8125 0 L 2.828125 0 C 2.734375 0 2.660156 -0.0234375 2.609375 -0.078125 C 2.566406 -0.128906 2.554688 -0.203125 2.578125 -0.296875 L 3.828125 -10.40625 C 3.828125 -10.476562 3.789062 -10.515625 3.71875 -10.515625 L 1.546875 -10.515625 C 1.453125 -10.515625 1.378906 -10.539062 1.328125 -10.59375 C 1.285156 -10.644531 1.269531 -10.710938 1.28125 -10.796875 L 1.59375 -13.359375 C 1.613281 -13.453125 1.648438 -13.523438 1.703125 -13.578125 C 1.765625 -13.628906 1.84375 -13.65625 1.9375 -13.65625 Z M 10.125 -13.65625 "/></g></g></g><g fill="#75c7fb" fill-opacity="1"><g transform="translate(106.440936, 32.15546)"><g><path d="M 9.015625 -10.796875 C 8.992188 -10.710938 8.953125 -10.644531 8.890625 -10.59375 C 8.835938 -10.539062 8.765625 -10.515625 8.671875 -10.515625 L 5.046875 -10.515625 C 4.984375 -10.515625 4.953125 -10.476562 4.953125 -10.40625 L 4.71875 -8.5 C 4.695312 -8.4375 4.722656 -8.40625 4.796875 -8.40625 L 6.6875 -8.40625 C 6.78125 -8.40625 6.847656 -8.378906 6.890625 -8.328125 C 6.941406 -8.273438 6.957031 -8.203125 6.9375 -8.109375 L 6.625 -5.5625 C 6.59375 -5.363281 6.484375 -5.265625 6.296875 -5.265625 L 4.40625 -5.265625 C 4.34375 -5.265625 4.3125 -5.234375 4.3125 -5.171875 L 4.078125 -3.234375 C 4.046875 -3.171875 4.070312 -3.140625 4.15625 -3.140625 L 7.78125 -3.140625 C 7.875 -3.140625 7.941406 -3.113281 7.984375 -3.0625 C 8.023438 -3.007812 8.039062 -2.9375 8.03125 -2.84375 L 7.71875 -0.296875 C 7.707031 -0.203125 7.671875 -0.128906 7.609375 -0.078125 C 7.554688 -0.0234375 7.484375 0 7.390625 0 L 0.390625 0 C 0.304688 0 0.242188 -0.0234375 0.203125 -0.078125 C 0.160156 -0.128906 0.144531 -0.203125 0.15625 -0.296875 L 1.75 -13.359375 C 1.769531 -13.453125 1.804688 -13.523438 1.859375 -13.578125 C 1.921875 -13.628906 1.988281 -13.65625 2.0625 -13.65625 L 9.0625 -13.65625 C 9.15625 -13.65625 9.222656 -13.628906 9.265625 -13.578125 C 9.316406 -13.523438 9.335938 -13.453125 9.328125 -13.359375 Z M 9.015625 -10.796875 "/></g></g></g><g fill="#75c7fb" fill-opacity="1"><g transform="translate(114.845882, 32.15546)"><g><path d="M 4.109375 0.15625 C 2.984375 0.15625 2.09375 -0.15625 1.4375 -0.78125 C 0.78125 -1.40625 0.453125 -2.253906 0.453125 -3.328125 C 0.453125 -3.460938 0.460938 -3.6875 0.484375 -4 L 1.1875 -9.6875 C 1.34375 -10.945312 1.84375 -11.945312 2.6875 -12.6875 C 3.53125 -13.4375 4.578125 -13.8125 5.828125 -13.8125 C 6.960938 -13.8125 7.859375 -13.5 8.515625 -12.875 C 9.179688 -12.257812 9.515625 -11.410156 9.515625 -10.328125 C 9.515625 -10.210938 9.503906 -10 9.484375 -9.6875 L 9.453125 -9.59375 C 9.441406 -9.5 9.40625 -9.421875 9.34375 -9.359375 C 9.289062 -9.304688 9.222656 -9.28125 9.140625 -9.28125 L 6.140625 -9.1875 C 5.941406 -9.1875 5.859375 -9.273438 5.890625 -9.453125 L 5.953125 -9.9375 C 5.972656 -10.164062 5.9375 -10.34375 5.84375 -10.46875 C 5.757812 -10.601562 5.628906 -10.671875 5.453125 -10.671875 C 5.273438 -10.671875 5.125 -10.601562 5 -10.46875 C 4.875 -10.34375 4.800781 -10.164062 4.78125 -9.9375 L 4.015625 -3.6875 C 3.992188 -3.476562 4.023438 -3.304688 4.109375 -3.171875 C 4.191406 -3.046875 4.320312 -2.984375 4.5 -2.984375 C 4.6875 -2.984375 4.835938 -3.046875 4.953125 -3.171875 C 5.078125 -3.296875 5.15625 -3.46875 5.1875 -3.6875 L 5.25 -4.21875 C 5.257812 -4.300781 5.289062 -4.363281 5.34375 -4.40625 C 5.40625 -4.457031 5.476562 -4.484375 5.5625 -4.484375 L 8.546875 -4.390625 C 8.628906 -4.390625 8.691406 -4.359375 8.734375 -4.296875 C 8.785156 -4.242188 8.804688 -4.171875 8.796875 -4.078125 L 8.78125 -4 C 8.625 -2.738281 8.117188 -1.726562 7.265625 -0.96875 C 6.410156 -0.21875 5.359375 0.15625 4.109375 0.15625 Z M 4.109375 0.15625 "/></g></g></g><g fill="#75c7fb" fill-opacity="1"><g transform="translate(123.855359, 32.15546)"><g><path d="M 6.421875 -13.359375 C 6.429688 -13.453125 6.460938 -13.523438 6.515625 -13.578125 C 6.566406 -13.628906 6.640625 -13.65625 6.734375 -13.65625 L 9.71875 -13.65625 C 9.800781 -13.65625 9.863281 -13.628906 9.90625 -13.578125 C 9.957031 -13.523438 9.976562 -13.453125 9.96875 -13.359375 L 8.359375 -0.296875 C 8.347656 -0.203125 8.3125 -0.128906 8.25 -0.078125 C 8.195312 -0.0234375 8.125 0 8.03125 0 L 5.046875 0 C 4.953125 0 4.882812 -0.0234375 4.84375 -0.078125 C 4.800781 -0.128906 4.785156 -0.203125 4.796875 -0.296875 L 5.40625 -5.171875 C 5.40625 -5.234375 5.378906 -5.265625 5.328125 -5.265625 L 4.40625 -5.265625 C 4.34375 -5.265625 4.3125 -5.234375 4.3125 -5.171875 L 3.703125 -0.296875 C 3.691406 -0.203125 3.65625 -0.128906 3.59375 -0.078125 C 3.539062 -0.0234375 3.472656 0 3.390625 0 L 0.390625 0 C 0.304688 0 0.242188 -0.0234375 0.203125 -0.078125 C 0.160156 -0.128906 0.144531 -0.203125 0.15625 -0.296875 L 1.75 -13.359375 C 1.769531 -13.453125 1.804688 -13.523438 1.859375 -13.578125 C 1.921875 -13.628906 1.988281 -13.65625 2.0625 -13.65625 L 5.0625 -13.65625 C 5.144531 -13.65625 5.207031 -13.628906 5.25 -13.578125 C 5.300781 -13.523438 5.316406 -13.453125 5.296875 -13.359375 L 4.71875 -8.5 C 4.695312 -8.4375 4.722656 -8.40625 4.796875 -8.40625 L 5.71875 -8.40625 C 5.738281 -8.40625 5.757812 -8.414062 5.78125 -8.4375 C 5.800781 -8.457031 5.8125 -8.476562 5.8125 -8.5 Z M 6.421875 -13.359375 "/></g></g></g><g fill="#ff3847" fill-opacity="1"><g transform="translate(60.811267, 47.67444)"><g><path d="M 4.0625 0.15625 C 2.9375 0.15625 2.046875 -0.128906 1.390625 -0.703125 C 0.742188 -1.285156 0.421875 -2.054688 0.421875 -3.015625 C 0.421875 -3.109375 0.4375 -3.273438 0.46875 -3.515625 L 0.546875 -4.109375 C 0.554688 -4.203125 0.585938 -4.273438 0.640625 -4.328125 C 0.703125 -4.378906 0.773438 -4.40625 0.859375 -4.40625 L 3.828125 -4.40625 C 3.898438 -4.40625 3.957031 -4.378906 4 -4.328125 C 4.050781 -4.273438 4.070312 -4.203125 4.0625 -4.109375 L 4.015625 -3.6875 C 3.992188 -3.476562 4.019531 -3.304688 4.09375 -3.171875 C 4.175781 -3.046875 4.296875 -2.984375 4.453125 -2.984375 C 4.617188 -2.984375 4.757812 -3.050781 4.875 -3.1875 C 4.988281 -3.332031 5.046875 -3.507812 5.046875 -3.71875 C 5.046875 -3.914062 4.953125 -4.117188 4.765625 -4.328125 C 4.578125 -4.535156 4.21875 -4.851562 3.6875 -5.28125 C 3.164062 -5.707031 2.734375 -6.085938 2.390625 -6.421875 C 2.054688 -6.753906 1.765625 -7.164062 1.515625 -7.65625 C 1.273438 -8.144531 1.15625 -8.703125 1.15625 -9.328125 C 1.15625 -9.441406 1.164062 -9.640625 1.1875 -9.921875 C 1.332031 -11.078125 1.8125 -12.015625 2.625 -12.734375 C 3.445312 -13.453125 4.46875 -13.8125 5.6875 -13.8125 C 6.8125 -13.8125 7.691406 -13.507812 8.328125 -12.90625 C 8.972656 -12.3125 9.296875 -11.503906 9.296875 -10.484375 C 9.296875 -10.367188 9.285156 -10.179688 9.265625 -9.921875 L 9.203125 -9.5 C 9.191406 -9.40625 9.15625 -9.332031 9.09375 -9.28125 C 9.039062 -9.226562 8.972656 -9.203125 8.890625 -9.203125 L 5.953125 -9.203125 C 5.867188 -9.203125 5.800781 -9.226562 5.75 -9.28125 C 5.707031 -9.332031 5.695312 -9.40625 5.71875 -9.5 L 5.765625 -10 C 5.785156 -10.195312 5.75 -10.359375 5.65625 -10.484375 C 5.570312 -10.609375 5.453125 -10.671875 5.296875 -10.671875 C 5.117188 -10.671875 4.972656 -10.59375 4.859375 -10.4375 C 4.742188 -10.28125 4.6875 -10.070312 4.6875 -9.8125 C 4.6875 -9.59375 4.773438 -9.363281 4.953125 -9.125 C 5.128906 -8.894531 5.46875 -8.570312 5.96875 -8.15625 C 6.632812 -7.59375 7.140625 -7.140625 7.484375 -6.796875 C 7.835938 -6.453125 8.113281 -6.070312 8.3125 -5.65625 C 8.519531 -5.25 8.625 -4.785156 8.625 -4.265625 C 8.625 -4.160156 8.609375 -3.976562 8.578125 -3.71875 C 8.421875 -2.539062 7.929688 -1.597656 7.109375 -0.890625 C 6.285156 -0.191406 5.269531 0.15625 4.0625 0.15625 Z M 4.0625 0.15625 "/></g></g></g><g fill="#ff3847" fill-opacity="1"><g transform="translate(69.567233, 47.67444)"><g><path d="M 4.171875 0.15625 C 3.015625 0.15625 2.101562 -0.15625 1.4375 -0.78125 C 0.78125 -1.414062 0.453125 -2.273438 0.453125 -3.359375 C 0.453125 -3.484375 0.460938 -3.703125 0.484375 -4.015625 L 1.1875 -9.640625 C 1.34375 -10.910156 1.847656 -11.921875 2.703125 -12.671875 C 3.554688 -13.429688 4.617188 -13.8125 5.890625 -13.8125 C 7.035156 -13.8125 7.941406 -13.492188 8.609375 -12.859375 C 9.273438 -12.234375 9.609375 -11.378906 9.609375 -10.296875 C 9.609375 -10.160156 9.597656 -9.941406 9.578125 -9.640625 L 8.890625 -4.015625 C 8.734375 -2.742188 8.222656 -1.726562 7.359375 -0.96875 C 6.503906 -0.21875 5.441406 0.15625 4.171875 0.15625 Z M 4.5625 -2.984375 C 4.757812 -2.984375 4.925781 -3.0625 5.0625 -3.21875 C 5.195312 -3.375 5.285156 -3.585938 5.328125 -3.859375 L 6.046875 -9.78125 C 6.066406 -10.0625 6.03125 -10.28125 5.9375 -10.4375 C 5.851562 -10.59375 5.710938 -10.671875 5.515625 -10.671875 C 5.304688 -10.671875 5.132812 -10.59375 5 -10.4375 C 4.863281 -10.28125 4.785156 -10.0625 4.765625 -9.78125 L 4.03125 -3.859375 C 4.019531 -3.804688 4.015625 -3.734375 4.015625 -3.640625 C 4.015625 -3.429688 4.0625 -3.269531 4.15625 -3.15625 C 4.257812 -3.039062 4.394531 -2.984375 4.5625 -2.984375 Z M 4.5625 -2.984375 "/></g></g></g><g fill="#ff3847" fill-opacity="1"><g transform="translate(78.713218, 47.67444)"><g><path d="M 0.390625 0 C 0.304688 0 0.242188 -0.0234375 0.203125 -0.078125 C 0.160156 -0.128906 0.144531 -0.203125 0.15625 -0.296875 L 1.75 -13.359375 C 1.769531 -13.453125 1.804688 -13.523438 1.859375 -13.578125 C 1.921875 -13.628906 1.988281 -13.65625 2.0625 -13.65625 L 5.0625 -13.65625 C 5.144531 -13.65625 5.207031 -13.628906 5.25 -13.578125 C 5.300781 -13.523438 5.316406 -13.453125 5.296875 -13.359375 L 4.078125 -3.234375 C 4.046875 -3.171875 4.070312 -3.140625 4.15625 -3.140625 L 7.859375 -3.140625 C 7.953125 -3.140625 8.019531 -3.113281 8.0625 -3.0625 C 8.101562 -3.007812 8.117188 -2.9375 8.109375 -2.84375 L 7.796875 -0.296875 C 7.753906 -0.0976562 7.644531 0 7.46875 0 Z M 0.390625 0 "/></g></g></g><g fill="#ff3847" fill-opacity="1"><g transform="translate(87.157166, 47.67444)"><g><path d="M 4.15625 0.15625 C 3.03125 0.15625 2.144531 -0.160156 1.5 -0.796875 C 0.851562 -1.429688 0.53125 -2.289062 0.53125 -3.375 C 0.53125 -3.519531 0.539062 -3.75 0.5625 -4.0625 L 1.71875 -13.359375 C 1.726562 -13.453125 1.757812 -13.523438 1.8125 -13.578125 C 1.875 -13.628906 1.945312 -13.65625 2.03125 -13.65625 L 5.03125 -13.65625 C 5.101562 -13.65625 5.160156 -13.628906 5.203125 -13.578125 C 5.253906 -13.523438 5.273438 -13.453125 5.265625 -13.359375 L 4.09375 -3.703125 C 4.070312 -3.484375 4.097656 -3.304688 4.171875 -3.171875 C 4.253906 -3.046875 4.378906 -2.984375 4.546875 -2.984375 C 4.710938 -2.984375 4.847656 -3.046875 4.953125 -3.171875 C 5.066406 -3.304688 5.140625 -3.484375 5.171875 -3.703125 L 6.359375 -13.359375 C 6.367188 -13.453125 6.398438 -13.523438 6.453125 -13.578125 C 6.503906 -13.628906 6.578125 -13.65625 6.671875 -13.65625 L 9.65625 -13.65625 C 9.738281 -13.65625 9.800781 -13.628906 9.84375 -13.578125 C 9.894531 -13.523438 9.914062 -13.453125 9.90625 -13.359375 L 8.75 -4.0625 C 8.644531 -3.226562 8.382812 -2.488281 7.96875 -1.84375 C 7.550781 -1.207031 7.007812 -0.710938 6.34375 -0.359375 C 5.6875 -0.015625 4.957031 0.15625 4.15625 0.15625 Z M 4.15625 0.15625 "/></g></g></g><g fill="#ff3847" fill-opacity="1"><g transform="translate(96.264149, 47.67444)"><g><path d="M 10.125 -13.65625 C 10.195312 -13.65625 10.253906 -13.628906 10.296875 -13.578125 C 10.347656 -13.523438 10.367188 -13.453125 10.359375 -13.359375 L 10.046875 -10.796875 C 10.023438 -10.710938 9.988281 -10.644531 9.9375 -10.59375 C 9.882812 -10.539062 9.816406 -10.515625 9.734375 -10.515625 L 7.46875 -10.515625 C 7.40625 -10.515625 7.375 -10.476562 7.375 -10.40625 L 6.125 -0.296875 C 6.113281 -0.203125 6.082031 -0.128906 6.03125 -0.078125 C 5.976562 -0.0234375 5.90625 0 5.8125 0 L 2.828125 0 C 2.734375 0 2.660156 -0.0234375 2.609375 -0.078125 C 2.566406 -0.128906 2.554688 -0.203125 2.578125 -0.296875 L 3.828125 -10.40625 C 3.828125 -10.476562 3.789062 -10.515625 3.71875 -10.515625 L 1.546875 -10.515625 C 1.453125 -10.515625 1.378906 -10.539062 1.328125 -10.59375 C 1.285156 -10.644531 1.269531 -10.710938 1.28125 -10.796875 L 1.59375 -13.359375 C 1.613281 -13.453125 1.648438 -13.523438 1.703125 -13.578125 C 1.765625 -13.628906 1.84375 -13.65625 1.9375 -13.65625 Z M 10.125 -13.65625 "/></g></g></g><g fill="#ff3847" fill-opacity="1"><g transform="translate(105.70265, 47.67444)"><g><path d="M 0.390625 0 C 0.304688 0 0.242188 -0.0234375 0.203125 -0.078125 C 0.160156 -0.128906 0.144531 -0.203125 0.15625 -0.296875 L 1.75 -13.359375 C 1.769531 -13.453125 1.804688 -13.523438 1.859375 -13.578125 C 1.921875 -13.628906 1.988281 -13.65625 2.0625 -13.65625 L 5.0625 -13.65625 C 5.144531 -13.65625 5.207031 -13.628906 5.25 -13.578125 C 5.300781 -13.523438 5.316406 -13.453125 5.296875 -13.359375 L 3.703125 -0.296875 C 3.691406 -0.203125 3.65625 -0.128906 3.59375 -0.078125 C 3.539062 -0.0234375 3.472656 0 3.390625 0 Z M 0.390625 0 "/></g></g></g><g fill="#ff3847" fill-opacity="1"><g transform="translate(110.246392, 47.67444)"><g><path d="M 4.171875 0.15625 C 3.015625 0.15625 2.101562 -0.15625 1.4375 -0.78125 C 0.78125 -1.414062 0.453125 -2.273438 0.453125 -3.359375 C 0.453125 -3.484375 0.460938 -3.703125 0.484375 -4.015625 L 1.1875 -9.640625 C 1.34375 -10.910156 1.847656 -11.921875 2.703125 -12.671875 C 3.554688 -13.429688 4.617188 -13.8125 5.890625 -13.8125 C 7.035156 -13.8125 7.941406 -13.492188 8.609375 -12.859375 C 9.273438 -12.234375 9.609375 -11.378906 9.609375 -10.296875 C 9.609375 -10.160156 9.597656 -9.941406 9.578125 -9.640625 L 8.890625 -4.015625 C 8.734375 -2.742188 8.222656 -1.726562 7.359375 -0.96875 C 6.503906 -0.21875 5.441406 0.15625 4.171875 0.15625 Z M 4.5625 -2.984375 C 4.757812 -2.984375 4.925781 -3.0625 5.0625 -3.21875 C 5.195312 -3.375 5.285156 -3.585938 5.328125 -3.859375 L 6.046875 -9.78125 C 6.066406 -10.0625 6.03125 -10.28125 5.9375 -10.4375 C 5.851562 -10.59375 5.710938 -10.671875 5.515625 -10.671875 C 5.304688 -10.671875 5.132812 -10.59375 5 -10.4375 C 4.863281 -10.28125 4.785156 -10.0625 4.765625 -9.78125 L 4.03125 -3.859375 C 4.019531 -3.804688 4.015625 -3.734375 4.015625 -3.640625 C 4.015625 -3.429688 4.0625 -3.269531 4.15625 -3.15625 C 4.257812 -3.039062 4.394531 -2.984375 4.5625 -2.984375 Z M 4.5625 -2.984375 "/></g></g></g><g fill="#ff3847" fill-opacity="1"><g transform="translate(119.392377, 47.67444)"><g><path d="M 7.234375 -13.359375 C 7.242188 -13.453125 7.273438 -13.523438 7.328125 -13.578125 C 7.390625 -13.628906 7.46875 -13.65625 7.5625 -13.65625 L 10.515625 -13.65625 C 10.597656 -13.65625 10.660156 -13.628906 10.703125 -13.578125 C 10.753906 -13.523438 10.773438 -13.453125 10.765625 -13.359375 L 9.140625 -0.296875 C 9.128906 -0.203125 9.097656 -0.128906 9.046875 -0.078125 C 8.992188 -0.0234375 8.921875 0 8.828125 0 L 5.453125 0 C 5.296875 0 5.207031 -0.0820312 5.1875 -0.25 L 4.453125 -6.234375 C 4.453125 -6.273438 4.4375 -6.296875 4.40625 -6.296875 C 4.382812 -6.296875 4.375 -6.273438 4.375 -6.234375 L 3.671875 -0.296875 C 3.648438 -0.203125 3.609375 -0.128906 3.546875 -0.078125 C 3.492188 -0.0234375 3.429688 0 3.359375 0 L 0.390625 0 C 0.304688 0 0.242188 -0.0234375 0.203125 -0.078125 C 0.160156 -0.128906 0.144531 -0.203125 0.15625 -0.296875 L 1.75 -13.359375 C 1.769531 -13.453125 1.804688 -13.523438 1.859375 -13.578125 C 1.921875 -13.628906 1.988281 -13.65625 2.0625 -13.65625 L 5.40625 -13.65625 C 5.5625 -13.65625 5.648438 -13.566406 5.671875 -13.390625 L 6.4375 -7.375 C 6.4375 -7.332031 6.445312 -7.316406 6.46875 -7.328125 C 6.5 -7.335938 6.519531 -7.359375 6.53125 -7.390625 Z M 7.234375 -13.359375 "/></g></g></g><g fill="#ff3847" fill-opacity="1"><g transform="translate(129.376907, 47.67444)"><g><path d="M 4.0625 0.15625 C 2.9375 0.15625 2.046875 -0.128906 1.390625 -0.703125 C 0.742188 -1.285156 0.421875 -2.054688 0.421875 -3.015625 C 0.421875 -3.109375 0.4375 -3.273438 0.46875 -3.515625 L 0.546875 -4.109375 C 0.554688 -4.203125 0.585938 -4.273438 0.640625 -4.328125 C 0.703125 -4.378906 0.773438 -4.40625 0.859375 -4.40625 L 3.828125 -4.40625 C 3.898438 -4.40625 3.957031 -4.378906 4 -4.328125 C 4.050781 -4.273438 4.070312 -4.203125 4.0625 -4.109375 L 4.015625 -3.6875 C 3.992188 -3.476562 4.019531 -3.304688 4.09375 -3.171875 C 4.175781 -3.046875 4.296875 -2.984375 4.453125 -2.984375 C 4.617188 -2.984375 4.757812 -3.050781 4.875 -3.1875 C 4.988281 -3.332031 5.046875 -3.507812 5.046875 -3.71875 C 5.046875 -3.914062 4.953125 -4.117188 4.765625 -4.328125 C 4.578125 -4.535156 4.21875 -4.851562 3.6875 -5.28125 C 3.164062 -5.707031 2.734375 -6.085938 2.390625 -6.421875 C 2.054688 -6.753906 1.765625 -7.164062 1.515625 -7.65625 C 1.273438 -8.144531 1.15625 -8.703125 1.15625 -9.328125 C 1.15625 -9.441406 1.164062 -9.640625 1.1875 -9.921875 C 1.332031 -11.078125 1.8125 -12.015625 2.625 -12.734375 C 3.445312 -13.453125 4.46875 -13.8125 5.6875 -13.8125 C 6.8125 -13.8125 7.691406 -13.507812 8.328125 -12.90625 C 8.972656 -12.3125 9.296875 -11.503906 9.296875 -10.484375 C 9.296875 -10.367188 9.285156 -10.179688 9.265625 -9.921875 L 9.203125 -9.5 C 9.191406 -9.40625 9.15625 -9.332031 9.09375 -9.28125 C 9.039062 -9.226562 8.972656 -9.203125 8.890625 -9.203125 L 5.953125 -9.203125 C 5.867188 -9.203125 5.800781 -9.226562 5.75 -9.28125 C 5.707031 -9.332031 5.695312 -9.40625 5.71875 -9.5 L 5.765625 -10 C 5.785156 -10.195312 5.75 -10.359375 5.65625 -10.484375 C 5.570312 -10.609375 5.453125 -10.671875 5.296875 -10.671875 C 5.117188 -10.671875 4.972656 -10.59375 4.859375 -10.4375 C 4.742188 -10.28125 4.6875 -10.070312 4.6875 -9.8125 C 4.6875 -9.59375 4.773438 -9.363281 4.953125 -9.125 C 5.128906 -8.894531 5.46875 -8.570312 5.96875 -8.15625 C 6.632812 -7.59375 7.140625 -7.140625 7.484375 -6.796875 C 7.835938 -6.453125 8.113281 -6.070312 8.3125 -5.65625 C 8.519531 -5.25 8.625 -4.785156 8.625 -4.265625 C 8.625 -4.160156 8.609375 -3.976562 8.578125 -3.71875 C 8.421875 -2.539062 7.929688 -1.597656 7.109375 -0.890625 C 6.285156 -0.191406 5.269531 0.15625 4.0625 0.15625 Z M 4.0625 0.15625 "/></g></g></g></svg>